:version 1.10
:name ASF
:units
  mass 1
  length 1
  angle deg
:documentation
  ASF file generated by Kaydara
:root
  axis xyz
  order  tx ty tz rx ry rz
  position 0 0 0
  orientation 0 0 0
:bonedata
  begin
    id 1
    name lfemurDummy
    direction 0.61522 -0.761478 0.204097
    length 5.68318
    axis 0 -0 0 xyz
  end
  begin
    id 2
    name lfemur
    direction 0.34202 -0.939693 -5.84747e-008
    length 16.9147
    axis 0 -0 20 xyz
    dof rx ry rz
    limits( -inf , inf )
( -inf , inf )
( -inf , inf )

  end
  begin
    id 3
    name ltibia
    direction 0.34202 -0.939693 1.20839e-009
    length 18.0532
    axis 0 -0 20 xyz
    dof rz ry rx
    limits( -inf , inf )
( -inf , inf )
( -inf , inf )

  end
  begin
    id 4
    name lfoot
    direction 0.0841971 -0.23133 0.969225
    length 5.23822
    axis -90 7.62852e-016 20 xyz
    dof ry rx rz
    limits( -inf , inf )
( -inf , inf )
( -inf , inf )

  end
  begin
    id 5
    name ltoes
    direction 0 0 0
    length 0
    axis 0 0 0 xyz
    dof rz ry rx
    limits( -inf , inf )
( -inf , inf )
( -inf , inf )

  end
  begin
    id 6
    name rfemurDummy
    direction -0.625247 -0.75382 0.202044
    length 5.74091
    axis 0 -0 0 xyz
  end
  begin
    id 7
    name rfemur
    direction -0.34202 -0.939693 -1.47013e-008
    length 16.4922
    axis 0 -0 -20 xyz
    dof rx ry rz
    limits( -inf , inf )
( -inf , inf )
( -inf , inf )

  end
  begin
    id 8
    name rtibia
    direction -0.34202 -0.939693 -7.74345e-010
    length 18.2421
    axis 0 -0 -20 xyz
    dof rz ry rx
    limits( -inf , inf )
( -inf , inf )
( -inf , inf )

  end
  begin
    id 9
    name rfoot
    direction -0.124331 -0.341598 0.931586
    length 5.45787
    axis -90 -7.62852e-016 -20 xyz
    dof ry rx rz
    limits( -inf , inf )
( -inf , inf )
( -inf , inf )

  end
  begin
    id 10
    name rtoes
    direction 0 0 0
    length 0
    axis 0 0 0 xyz
    dof rz ry rx
    limits( -inf , inf )
( -inf , inf )
( -inf , inf )

  end
  begin
    id 11
    name lowerbackDummy
    direction 0 0 0
    length 0
    axis 0 -0 0 xyz
  end
  begin
    id 12
    name lowerback
    direction -0.0218484 0.994884 -0.0986304
    length 4.45607
    axis 0 -0 0 xyz
    dof rx ry rz
    limits( -inf , inf )
( -inf , inf )
( -inf , inf )

  end
  begin
    id 13
    name upperback
    direction -0.00973057 0.999717 -0.0217111
    length 4.47449
    axis 0 -0 0 xyz
    dof rx ry rz
    limits( -inf , inf )
( -inf , inf )
( -inf , inf )

  end
  begin
    id 14
    name thorax
    direction -0.000928171 0.999699 0.0245198
    length 4.50973
    axis 0 -0 0 xyz
    dof rx ry rz
    limits( -inf , inf )
( -inf , inf )
( -inf , inf )

  end
  begin
    id 15
    name rclavicle
    direction -0.9009 0.425937 -0.0834055
    length 7.28587
    axis 0 -0 0 xyz
    dof rx ry rz
    limits( -inf , inf )
( -inf , inf )
( -inf , inf )

  end
  begin
    id 16
    name rhumerus
    direction -1 -2.23604e-007 -1.42637e-007
    length 13.5704
    axis 180 30 90 xyz
    dof rx ry rz
    limits( -inf , inf )
( -inf , inf )
( -inf , inf )

  end
  begin
    id 17
    name rradius
    direction -1 5.68281e-008 -4.4952e-007
    length 8.06782
    axis 180 30 90 xyz
    dof rz ry rx
    limits( -inf , inf )
( -inf , inf )
( -inf , inf )

  end
  begin
    id 18
    name rwrist
    direction -1 1.51393e-007 1.38143e-007
    length 4.03391
    axis -90 -90 0 xyz
    dof rz rx ry
    limits( -inf , inf )
( -inf , inf )
( -inf , inf )

  end
  begin
    id 19
    name rthumb
    direction 0 0 0
    length 0
    axis 0 0 0 xyz
    dof ry rx rz
    limits( -inf , inf )
( -inf , inf )
( -inf , inf )

  end
  begin
    id 20
    name rhand
    direction -1 -3.34077e-007 -5.59631e-007
    length 1.29744
    axis -90 -90 0 xyz
    dof ry rx rz
    limits( -inf , inf )
( -inf , inf )
( -inf , inf )

  end
  begin
    id 21
    name rfingers
    direction 0 0 0
    length 0
    axis 0 0 0 xyz
    dof rz ry rx
    limits( -inf , inf )
( -inf , inf )
( -inf , inf )

  end
  begin
    id 22
    name lclavicle
    direction 0.940017 0.332249 -0.0773232
    length 8.29589
    axis 0 -0 0 xyz
    dof rx ry rz
    limits( -inf , inf )
( -inf , inf )
( -inf , inf )

  end
  begin
    id 23
    name lhumerus
    direction 1 7.41158e-008 -1.44768e-008
    length 12.0042
    axis 180 -30 -90 xyz
    dof rx ry rz
    limits( -inf , inf )
( -inf , inf )
( -inf , inf )

  end
  begin
    id 24
    name lradius
    direction 1 -1.32972e-007 3.10821e-007
    length 8.1902
    axis 180 -30 -90 xyz
    dof rz ry rx
    limits( -inf , inf )
( -inf , inf )
( -inf , inf )

  end
  begin
    id 25
    name lwrist
    direction 1 3.08957e-007 4.01394e-007
    length 4.09509
    axis -90 90 0 xyz
    dof rz rx ry
    limits( -inf , inf )
( -inf , inf )
( -inf , inf )

  end
  begin
    id 26
    name lthumb
    direction 0 0 0
    length 0
    axis 0 0 0 xyz
    dof ry rx rz
    limits( -inf , inf )
( -inf , inf )
( -inf , inf )

  end
  begin
    id 27
    name lhand
    direction 1 -1.64125e-007 -6.99514e-007
    length 1.37229
    axis -90 90 0 xyz
    dof ry rx rz
    limits( -inf , inf )
( -inf , inf )
( -inf , inf )

  end
  begin
    id 28
    name lfingers
    direction 0 0 0
    length 0
    axis 0 0 0 xyz
    dof rz ry rx
    limits( -inf , inf )
( -inf , inf )
( -inf , inf )

  end
  begin
    id 29
    name lowerneck
    direction -0.030798 0.998024 0.0547665
    length 3.93918
    axis 0 -0 0 xyz
    dof rx ry rz
    limits( -inf , inf )
( -inf , inf )
( -inf , inf )

  end
  begin
    id 30
    name upperneck
    direction 0.0531588 0.996611 -0.0627736
    length 3.95491
    axis 0 -0 0 xyz
    dof rx ry rz
    limits( -inf , inf )
( -inf , inf )
( -inf , inf )

  end
  begin
    id 31
    name head
    direction 0 0 0
    length 0
    axis 0 0 0 xyz
    dof rx ry rz
    limits( -inf , inf )
( -inf , inf )
( -inf , inf )

  end
:hierarchy
  begin
    root lfemurDummy rfemurDummy lowerbackDummy
    lfemurDummy lfemur
    lfemur ltibia
    ltibia lfoot
    lfoot ltoes
    rfemurDummy rfemur
    rfemur rtibia
    rtibia rfoot
    rfoot rtoes
    lowerbackDummy lowerback
    lowerback upperback
    upperback thorax
    thorax rclavicle lclavicle lowerneck
    rclavicle rhumerus
    rhumerus rradius
    rradius rwrist
    rwrist rthumb rhand
    rhand rfingers
    lclavicle lhumerus
    lhumerus lradius
    lradius lwrist
    lwrist lthumb lhand
    lhand lfingers
    lowerneck upperneck
    upperneck head
  end

:SAMPLES-PER-SECOND 30
:FULLY-SPECIFIED
:DEGREES
19
root  0.7763555669 39.74044379 4.561688956 168.9679871 -75.90399933 -167.4719849
lowerback  15.30459976 3.934679985 -3.768539906
upperback  4.716660023 4.119830132 -2.964659929
thorax  -3.599489927 1.894029975 -1.733479977
lowerneck  0.02664179914 9.936109543 -6.310870171
upperneck  11.85540009 12.66819954 6.587110043
head  2.97349 6.142690182 3.486399889
lclavicle  0 -9.442270133e-015 7.951389973e-016
lhumerus  3.585279942 2.010890007 61.30849838
lradius  2.951543087e-031 -1.938359472e-031 146.7059937
lwrist  -7.062250077e-031 1.324171889e-031 27.31399918
lhand  -1.496451383e-031 -27.76390076 20.11240005
lfingers  90 7.125020027 -90
lthumb  89.89689403 5.08795885 91.16245106
rclavicle  0 -9.442270133e-015 7.951389973e-016
rhumerus  10.87020016 13.85369968 -75.07440186
rradius  -2.806935856e-031 2.142418058e-031 142.6470032
rwrist  0 -8.827812596e-032 -18.8465004
rhand  -7.920061211e-032 -33.2840004 9.303460121
rfingers  -90 -7.125020027 -90
rthumb  -92.93752616 -24.25625642 -97.11982154
rfemur  -8.778479576 16.59900093 4.728990078
rtibia  -0 0 48.41740036
rfoot  -4.44858981e-032 -7.15929985 -2.093179941
rtoes  5.373923086 19.29304026 -105.8922705
lfemur  -32.35979843 6.245470047 1.390540004
ltibia  -0 0 61.89799881
lfoot  4.420136668e-032 -3.042479992 -2.220799923
ltoes  -4.250644065 -19.5611806 -102.515957
20
root  0.8324399708 39.51777661 4.456955617 168.4150085 -76.04699707 -167.1910095
lowerback  15.28149986 3.832159996 -3.548759937
upperback  4.750060081 4.038589954 -2.758179903
thorax  -3.552340031 1.856279969 -1.621019959
lowerneck  0.1002589986 10.00979996 -6.357699871
upperneck  11.89239979 12.77470016 6.444699764
head  2.972140074 6.18667984 3.442840099
lclavicle  0 -9.442270133e-015 7.951389973e-016
lhumerus  1.987769961 0.9933969975 62.35480118
lradius  2.953166067e-031 -1.935885899e-031 146.7539978
lwrist  -1.412450015e-030 2.648343779e-031 25.74209976
lhand  -1.496451383e-031 -27.76390076 20.11240005
lfingers  90 7.125020027 -90
lthumb  89.89689403 5.08795885 91.16245106
rclavicle  0 -9.442270133e-015 7.951389973e-016
rhumerus  11.04339981 14.16119957 -74.8993988
rradius  -2.809999172e-031 2.138398627e-031 142.7290039
rwrist  1.412450015e-030 -0 -18.32999992
rhand  -7.920061211e-032 -33.2840004 9.303460121
rfingers  -90 -7.125020027 -90
rthumb  -92.93752616 -24.25625642 -97.11982154
rfemur  -6.964970112 17.55190086 5.437709808
rtibia  -0 0 47.16239929
rfoot  -5.555991638e-032 -6.758520126 -1.612810016
rtoes  5.373923086 19.29304026 -105.8922705
lfemur  -32.52679825 7.352069855 0.9452030063
ltibia  -0 0 63.42670059
lfoot  4.417275904e-032 -2.238090038 -3.945189953
ltoes  -4.250644065 -19.5611806 -102.515957
21
root  0.866768867 39.28755512 4.350177885 168.4649963 -76.22799683 -167.4079895
lowerback  15.06340027 3.735179901 -3.422889948
upperback  4.737619877 3.960040092 -2.621639967
thorax  -3.450299978 1.821740031 -1.520099998
lowerneck  0.146991998 10.08110046 -6.436890125
upperneck  11.95510006 12.8696003 6.419620037
head  2.975399971 6.227670193 3.44671011
lclavicle  0 -9.442270133e-015 7.951389973e-016
lhumerus  0.4055140018 0.4300610125 63.58610153
lradius  2.955461827e-031 -1.932379214e-031 146.8220062
lwrist  0 4.413906298e-032 24.99880028
lhand  -1.496451383e-031 -27.76390076 20.11240005
lfingers  90 7.125020027 -90
lthumb  89.89689403 5.08795885 91.16245106
rclavicle  0 -9.442270133e-015 7.951389973e-016
rhumerus  11.05389977 14.50549984 -74.69419861
rradius  -2.812758285e-031 2.134768106e-031 142.8029938
rwrist  7.062250077e-031 -1.765562519e-031 -17.5345993
rhand  -7.920061211e-032 -33.2840004 9.303460121
rfingers  -90 -7.125020027 -90
rthumb  -92.93752616 -24.25625642 -97.11982154
rfemur  -5.018899918 18.58839989 6.036159992
rtibia  -0 0 45.54159927
rfoot  -4.460689552e-032 -8.305430412 -1.824349999
rtoes  5.373923086 19.29304026 -105.8922705
lfemur  -32.70420074 8.502590179 0.2610549927
ltibia  -0 0 64.64209747
lfoot  4.414999307e-032 -1.274950027 -5.837619781
ltoes  -4.250644065 -19.5611806 -102.515957
22
root  0.8878911574 39.01288791 4.244400009 168.026001 -76.375 -166.9769897
lowerback  14.61390018 3.589339972 -3.116379976
upperback  4.684269905 3.858999968 -2.513119936
thorax  -3.253340006 1.779530048 -1.533339977
lowerneck  0.07979559898 10.13269997 -6.390749931
upperneck  12.09969997 12.93529987 6.434430122
head  3.034980059 6.260650158 3.456480026
lclavicle  0 -9.442270133e-015 7.951389973e-016
lhumerus  -1.165269971 0.1492120028 64.79660034
lradius  2.959603395e-031 -1.926030057e-031 146.9450073
lwrist  -7.062250077e-031 1.765562519e-031 24.69759941
lhand  -1.496451383e-031 -27.76390076 20.11240005
lfingers  90 7.125020027 -90
lthumb  89.89689403 5.08795885 91.16245106
rclavicle  0 -9.442270133e-015 7.951389973e-016
rhumerus  10.94760036 14.89210033 -74.6812973
rradius  -2.817372081e-031 2.128675314e-031 142.927002
rwrist  7.062250077e-031 -0 -17.02070045
rhand  -7.920061211e-032 -33.2840004 9.303460121
rfingers  -90 -7.125020027 -90
rthumb  -92.93752616 -24.25625642 -97.11982154
rfemur  -3.067329884 19.55500031 6.853720188
rtibia  -0 0 43.86270142
rfoot  -4.512631133e-032 -12.00689983 -2.958199978
rtoes  5.373923086 19.29304026 -105.8922705
lfemur  -32.91630173 9.660610199 -0.2917520106
ltibia  -0 0 65.52559662
lfoot  -0 -0.4656080008 -7.626629829
ltoes  -4.250644065 -19.5611806 -102.515957
